<svg width="24" height="24" version="1.1" viewBox="0 0 24 24" xmlns="http://www.w3.org/2000/svg">
 <path d="m12.736 2c-1.0771 0-1.9668 0.88968-1.9668 1.9668v4.5254l1.498-0.25v-4.2754c0-0.26646 0.20229-0.4668 0.46875-0.4668h4.1152v2.8984a0.75007 0.75007 0 0 0 0.75 0.75195h2.8984v6.5469c0 0.26646-0.20034 0.4668-0.4668 0.4668h-3.9004v1.5h3.9004c1.0771 0 1.9668-0.88968 1.9668-1.9668v-7.2988a0.75007 0.75007 0 0 0-0.2207-0.5293l-3.6484-3.6484a0.75007 0.75007 0 0 0-0.5293-0.2207h-4.8652zm5.6133 2.5586 1.0898 1.0918h-1.0898v-1.0918zm-4.3984 1.6992a0.75 0.75 0 0 0-0.74805 0.75 0.75 0.75 0 0 0 0.74805 0.75h1.2168a0.75 0.75 0 0 0 0.75-0.75 0.75 0.75 0 0 0-0.75-0.75h-1.2168zm2.0039 2.4316a1.5002 1.5002 0 0 1 0.17773 0.67773v0.82422h2.6836a0.75 0.75 0 0 0 0.75-0.75195 0.75 0.75 0 0 0-0.75-0.75h-2.8613zm0.17773 2.4336v1.5h2.6836a0.75 0.75 0 0 0 0.75-0.75 0.75 0.75 0 0 0-0.75-0.75h-2.6836zm-3.8652 0.16016-1.498 0.25v2.1641c0 0.5961 0.27209 1.134 0.69727 1.4961 0.43027-0.21278 0.91106-0.33594 1.418-0.33594 0.083208 0 0.16629 0.003419 0.24805 0.009766v-0.70313h-0.39648c-0.25992 0-0.46875-0.20688-0.46875-0.4668v-2.4141z" fill="#ffffff" stroke-linecap="round" stroke-linejoin="round" stroke-width="1.5"/>
 <g transform="matrix(.78117 0 0 .78117 1.4811 8.0235)" fill="none" stop-color="#000000" stroke="#ffffff" stroke-linecap="round" stroke-linejoin="round" stroke-width="1.9202" style="-inkscape-stroke:none;font-variation-settings:normal">
  <circle cx="3.8612" cy="14.695" r="2.2368" stop-color="#000000" style="-inkscape-stroke:none;font-variation-settings:normal"/>
  <circle cx="14.598" cy="12.905" r="2.2368" stop-color="#000000" style="-inkscape-stroke:none;font-variation-settings:normal"/>
  <path d="m6.0981 14.247v-10.737l10.737-1.7895v10.737" stop-color="#000000" style="-inkscape-stroke:none;font-variation-settings:normal"/>
 </g>
</svg>
